<svg xmlns="http://www.w3.org/2000/svg" viewBox="0 0 420 180" role="img" aria-labelledby="title"><title id="title">diana. — Jeske-Siegel</title><g transform="translate(14 14) scale(.58)"><rect x="74" y="32" width="18" height="18" rx="0.8" fill="#A9C6B0"/><rect x="48" y="55" width="18" height="18" rx="0.8" fill="#527267"/><rect x="74" y="59" width="18" height="18" rx="0.8" fill="#A9C6B0"/><rect x="24" y="67" width="18" height="18" rx="0.8" fill="#E9BE5B"/><rect x="0" y="90" width="18" height="18" rx="0.8" fill="#A9C6B0"/><rect x="24" y="90" width="18" height="18" rx="0.8" fill="#527267"/><rect x="48" y="87" width="18" height="18" rx="0.8" fill="#C85D35"/><rect x="74" y="86" width="18" height="18" rx="0.8" fill="#527267"/><rect x="0" y="117" width="18" height="18" rx="0.8" fill="#A9C6B0"/><rect x="24" y="117" width="18" height="18" rx="0.8" fill="#E9BE5B"/><rect x="48" y="117" width="18" height="18" rx="0.8" fill="#527267"/><rect x="24" y="143" width="18" height="18" rx="0.8" fill="#A9C6B0"/><path fill="#173530" fill-rule="evenodd" d="M145 9 C163 8 180 5 197 0 L197 211 C197 224 201 228 220 228 L220 235 L174 235 L174 211 C160 229 144 237 123 237 C83 237 57 207 57 163 C57 121 82 89 120 89 C142 89 159 96 171 111 L171 34 C171 18 166 16 145 16 Z M121 96 C91 96 83 127 83 163 C83 204 94 231 123 231 C150 231 174 205 174 165 C174 126 155 96 121 96 Z"/></g><path fill="#173530" transform="translate(156.000 112) scale(0.064000 -0.064000)" d="M484 784V109Q484 64 500.5 42.5Q517 21 560 21V0Q529 3 498 3Q469 3 442.5 0.0Q416 -3 394 -11V664Q394 709 378.0 730.5Q362 752 318 752V773Q350 770 380 770Q409 770 435.5 773.5Q462 777 484 784ZM274 529Q318 529 356.5 508.0Q395 487 408 436L395 426Q381 468 351.5 487.0Q322 506 282 506Q223 506 183.5 445.0Q144 384 145 257Q145 176 160.5 122.5Q176 69 206.5 42.5Q237 16 281 16Q323 16 357.0 52.0Q391 88 398 158L410 144Q402 68 361.5 27.0Q321 -14 252 -14Q190 -14 143.5 16.0Q97 46 72.5 106.0Q48 166 48 257Q48 348 79.5 408.5Q111 469 162.5 499.0Q214 529 274 529Z"/><path fill="#173530" transform="translate(193.184 112) scale(0.064000 -0.064000)" d="M143 765Q169 765 188.0 746.0Q207 727 207 701Q207 675 188.0 656.0Q169 637 143 637Q117 637 98.0 656.0Q79 675 79 701Q79 727 98.0 746.0Q117 765 143 765ZM195 526V93Q195 51 212.5 36.0Q230 21 271 21V0Q254 1 219.5 2.5Q185 4 150 4Q116 4 81.0 2.5Q46 1 29 0V21Q70 21 87.5 36.0Q105 51 105 93V406Q105 451 89.0 472.5Q73 494 29 494V515Q61 512 91 512Q120 512 146.5 515.5Q173 519 195 526Z"/><path fill="#173530" transform="translate(211.936 112) scale(0.064000 -0.064000)" d="M171 -7Q130 -7 100.0 8.5Q70 24 54.5 52.0Q39 80 39 117Q39 161 59.5 189.0Q80 217 112.0 234.0Q144 251 179.5 262.5Q215 274 247.0 284.5Q279 295 299.5 309.0Q320 323 320 346V408Q320 450 307.5 472.0Q295 494 274.0 501.5Q253 509 227 509Q202 509 173.5 502.0Q145 495 128 473Q147 469 161.0 453.0Q175 437 175 412Q175 387 159.0 372.5Q143 358 118 358Q89 358 75.5 376.5Q62 395 62 418Q62 444 75.0 460.0Q88 476 108 490Q131 506 167.5 517.5Q204 529 250 529Q291 529 320.0 519.5Q349 510 368 492Q394 468 402.0 433.5Q410 399 410 351V73Q410 48 417.5 37.0Q425 26 441 26Q452 26 462.0 31.0Q472 36 486 47L497 30Q476 14 457.0 3.5Q438 -7 406 -7Q377 -7 358.0 3.0Q339 13 329.5 32.5Q320 52 320 82Q293 37 255.5 15.0Q218 -7 171 -7ZM207 33Q240 33 268.5 52.0Q297 71 320 109V305Q308 288 285.0 276.5Q262 265 235.0 253.5Q208 242 183.5 226.5Q159 211 143.0 186.0Q127 161 127 121Q127 81 148.5 57.0Q170 33 207 33Z"/><path fill="#173530" transform="translate(243.808 112) scale(0.064000 -0.064000)" d="M365 529Q403 529 428.5 519.0Q454 509 471 491Q490 471 498.0 441.0Q506 411 506 360V93Q506 51 523.5 36.0Q541 21 582 21V0Q565 1 530.0 2.5Q495 4 462 4Q429 4 397.5 2.5Q366 1 350 0V21Q386 21 401.0 36.0Q416 51 416 93V382Q416 413 411.0 439.0Q406 465 388.5 481.0Q371 497 335 497Q293 497 261.5 473.0Q230 449 212.5 407.5Q195 366 195 315V93Q195 51 210.0 36.0Q225 21 261 21V0Q245 1 213.5 2.5Q182 4 149 4Q116 4 81.0 2.5Q46 1 29 0V21Q70 21 87.5 36.0Q105 51 105 93V406Q105 451 89.0 472.5Q73 494 29 494V515Q61 512 91 512Q120 512 146.5 515.5Q173 519 195 526V408Q221 476 267.5 502.5Q314 529 365 529Z"/><path fill="#173530" transform="translate(282.016 112) scale(0.064000 -0.064000)" d="M171 -7Q130 -7 100.0 8.5Q70 24 54.5 52.0Q39 80 39 117Q39 161 59.5 189.0Q80 217 112.0 234.0Q144 251 179.5 262.5Q215 274 247.0 284.5Q279 295 299.5 309.0Q320 323 320 346V408Q320 450 307.5 472.0Q295 494 274.0 501.5Q253 509 227 509Q202 509 173.5 502.0Q145 495 128 473Q147 469 161.0 453.0Q175 437 175 412Q175 387 159.0 372.5Q143 358 118 358Q89 358 75.5 376.5Q62 395 62 418Q62 444 75.0 460.0Q88 476 108 490Q131 506 167.5 517.5Q204 529 250 529Q291 529 320.0 519.5Q349 510 368 492Q394 468 402.0 433.5Q410 399 410 351V73Q410 48 417.5 37.0Q425 26 441 26Q452 26 462.0 31.0Q472 36 486 47L497 30Q476 14 457.0 3.5Q438 -7 406 -7Q377 -7 358.0 3.0Q339 13 329.5 32.5Q320 52 320 82Q293 37 255.5 15.0Q218 -7 171 -7ZM207 33Q240 33 268.5 52.0Q297 71 320 109V305Q308 288 285.0 276.5Q262 265 235.0 253.5Q208 242 183.5 226.5Q159 211 143.0 186.0Q127 161 127 121Q127 81 148.5 57.0Q170 33 207 33Z"/><path fill="#E9BE5B" transform="translate(313.888 112) scale(0.064000 -0.064000)" d="M126 114Q152 114 171.0 95.0Q190 76 190 50Q190 24 171.0 5.0Q152 -14 126 -14Q100 -14 81.0 5.0Q62 24 62 50Q62 76 81.0 95.0Q100 114 126 114Z"/><path fill="#173530" transform="translate(160.000 136) scale(0.012000 -0.012000)" d="M254.86328125 -12Q188.138916015625 -12 138.500732421875 13.4483642578125Q88.862548828125 38.896728515625 61.6727294921875 87.62109375Q34.48291015625 136.345458984375 34.48291015625 205.38037109375H154.657470703125Q154.657470703125 172.449462890625 164.916015625 147.4669189453125Q175.174560546875 122.484375 196.536376953125 108.881103515625Q217.898193359375 95.27783203125 252.2080078125 95.27783203125Q285.517822265625 95.27783203125 305.879638671875 108.1741943359375Q326.241455078125 121.070556640625 335.5 144.432373046875Q344.758544921875 167.794189453125 344.758544921875 199.06982421875V700H464.7607421875V199.06982421875Q464.7607421875 97.207275390625 408.294921875 42.6036376953125Q351.8291015625 -12 254.86328125 -12Z"/><path fill="#173530" transform="translate(170.030 136) scale(0.012000 -0.012000)" d="M74.930908203125 0V700H527.38037109375V602.8603515625H194.93310546875V401.8974609375H497.38037109375V307.4130859375H194.93310546875V97.1396484375H527.38037109375V0Z"/><path fill="#173530" transform="translate(180.600 136) scale(0.012000 -0.012000)" d="M310.931640625 -12Q234.75927734375 -12 175.8970947265625 14.758544921875Q117.034912109375 41.51708984375 83.7589111328125 91.51708984375Q50.48291015625 141.51708984375 49.241455078125 210.82763671875H176.140380859375Q176.968017578125 176.44873046875 193.0712890625 148.7767333984375Q209.174560546875 121.104736328125 238.8465576171875 104.9498291015625Q268.5185546875 88.794921875 310.517822265625 88.794921875Q346.758544921875 88.794921875 373.2236328125 100.570556640625Q399.688720703125 112.34619140625 414.0850830078125 133.7596435546875Q428.4814453125 155.173095703125 428.4814453125 183.79345703125Q428.4814453125 213.103271484375 414.2574462890625 234.6719970703125Q400.033447265625 256.24072265625 374.5509033203125 271.499267578125Q349.068359375 286.7578125 315.4134521484375 299.343994140625Q281.758544921875 311.93017578125 242.310546875 324.27490234375Q153.069091796875 351.447265625 110.258544921875 396.43017578125Q67.447998046875 441.4130859375 67.447998046875 513.792724609375Q67.447998046875 574.930908203125 96.6378173828125 619.17236328125Q125.82763671875 663.413818359375 178.4312744140625 687.7069091796875Q231.034912109375 712 299.862548828125 712Q369.75927734375 712 422.156005859375 687.2069091796875Q474.552734375 662.413818359375 504.8287353515625 617.4654541015625Q535.104736328125 572.51708984375 536.34619140625 511.37890625H408.205810546875Q407.7919921875 536.654541015625 394.6541748046875 559.27490234375Q381.516357421875 581.895263671875 357.0167236328125 596.257080078125Q332.51708984375 610.618896484375 297.690185546875 610.618896484375Q267.966552734375 611.618896484375 244.260009765625 601.2225341796875Q220.553466796875 590.826171875 206.9501953125 571.205810546875Q193.346923828125 551.58544921875 193.346923828125 522.620361328125Q193.346923828125 494.82763671875 206.191650390625 476.5174560546875Q219.036376953125 458.207275390625 242.81201171875 445.362548828125Q266.587646484375 432.517822265625 298.4149169921875 421.5523681640625Q330.2421875 410.5869140625 368.207275390625 398.06982421875Q420.44873046875 380.656005859375 462.845458984375 356.156005859375Q505.2421875 331.656005859375 530.22509765625 292.828369140625Q555.2080078125 254.000732421875 555.2080078125 191.690185546875Q555.2080078125 137.9658203125 527.2596435546875 91.6036376953125Q499.311279296875 45.241455078125 445.2421875 16.6207275390625Q391.173095703125 -12 310.931640625 -12Z"/><path fill="#173530" transform="translate(191.422 136) scale(0.012000 -0.012000)" d="M74.930908203125 0V700H194.93310546875V411.1396484375L459.62109375 700H608.244384765625L349.899658203125 422.241455078125L614.727294921875 0H468.44873046875L264.242919921875 329.515625L194.93310546875 255.205810546875V0Z"/><path fill="#173530" transform="translate(202.688 136) scale(0.012000 -0.012000)" d="M74.930908203125 0V700H527.38037109375V602.8603515625H194.93310546875V401.8974609375H497.38037109375V307.4130859375H194.93310546875V97.1396484375H527.38037109375V0Z"/><path fill="#173530" transform="translate(213.258 136) scale(0.012000 -0.012000)" d="M74.724365234375 259.688720703125V360.06982421875H488.932373046875V259.688720703125Z"/><path fill="#173530" transform="translate(223.576 136) scale(0.012000 -0.012000)" d="M310.931640625 -12Q234.75927734375 -12 175.8970947265625 14.758544921875Q117.034912109375 41.51708984375 83.7589111328125 91.51708984375Q50.48291015625 141.51708984375 49.241455078125 210.82763671875H176.140380859375Q176.968017578125 176.44873046875 193.0712890625 148.7767333984375Q209.174560546875 121.104736328125 238.8465576171875 104.9498291015625Q268.5185546875 88.794921875 310.517822265625 88.794921875Q346.758544921875 88.794921875 373.2236328125 100.570556640625Q399.688720703125 112.34619140625 414.0850830078125 133.7596435546875Q428.4814453125 155.173095703125 428.4814453125 183.79345703125Q428.4814453125 213.103271484375 414.2574462890625 234.6719970703125Q400.033447265625 256.24072265625 374.5509033203125 271.499267578125Q349.068359375 286.7578125 315.4134521484375 299.343994140625Q281.758544921875 311.93017578125 242.310546875 324.27490234375Q153.069091796875 351.447265625 110.258544921875 396.43017578125Q67.447998046875 441.4130859375 67.447998046875 513.792724609375Q67.447998046875 574.930908203125 96.6378173828125 619.17236328125Q125.82763671875 663.413818359375 178.4312744140625 687.7069091796875Q231.034912109375 712 299.862548828125 712Q369.75927734375 712 422.156005859375 687.2069091796875Q474.552734375 662.413818359375 504.8287353515625 617.4654541015625Q535.104736328125 572.51708984375 536.34619140625 511.37890625H408.205810546875Q407.7919921875 536.654541015625 394.6541748046875 559.27490234375Q381.516357421875 581.895263671875 357.0167236328125 596.257080078125Q332.51708984375 610.618896484375 297.690185546875 610.618896484375Q267.966552734375 611.618896484375 244.260009765625 601.2225341796875Q220.553466796875 590.826171875 206.9501953125 571.205810546875Q193.346923828125 551.58544921875 193.346923828125 522.620361328125Q193.346923828125 494.82763671875 206.191650390625 476.5174560546875Q219.036376953125 458.207275390625 242.81201171875 445.362548828125Q266.587646484375 432.517822265625 298.4149169921875 421.5523681640625Q330.2421875 410.5869140625 368.207275390625 398.06982421875Q420.44873046875 380.656005859375 462.845458984375 356.156005859375Q505.2421875 331.656005859375 530.22509765625 292.828369140625Q555.2080078125 254.000732421875 555.2080078125 191.690185546875Q555.2080078125 137.9658203125 527.2596435546875 91.6036376953125Q499.311279296875 45.241455078125 445.2421875 16.6207275390625Q391.173095703125 -12 310.931640625 -12Z"/><path fill="#173530" transform="translate(234.398 136) scale(0.012000 -0.012000)" d="M74.930908203125 0V700H194.93310546875V0Z"/><path fill="#173530" transform="translate(241.188 136) scale(0.012000 -0.012000)" d="M74.930908203125 0V700H527.38037109375V602.8603515625H194.93310546875V401.8974609375H497.38037109375V307.4130859375H194.93310546875V97.1396484375H527.38037109375V0Z"/><path fill="#173530" transform="translate(251.758 136) scale(0.012000 -0.012000)" d="M378.241455078125 -12Q279.413818359375 -12 205.2069091796875 32.8792724609375Q131 77.758544921875 89.7930908203125 158.3447265625Q48.586181640625 238.930908203125 48.586181640625 346.51708984375Q48.586181640625 453.930908203125 90.7069091796875 536.3447265625Q132.82763671875 618.758544921875 211.1898193359375 665.3792724609375Q289.552001953125 712 397.2763671875 712Q519.41455078125 712 600.06982421875 653.6378173828125Q680.72509765625 595.275634765625 703.966552734375 491.37890625H569.30908203125Q554.4814453125 542.7919921875 510.5509033203125 572.1363525390625Q466.620361328125 601.480712890625 396.862548828125 601.480712890625Q326.06982421875 601.480712890625 275.19091796875 570.4981689453125Q224.31201171875 539.515625 197.6571044921875 482.3436279296875Q171.002197265625 425.171630859375 171.002197265625 346.103271484375Q171.002197265625 266.62109375 197.864013671875 209.983642578125Q224.725830078125 153.34619140625 273.8116455078125 123.898193359375Q322.8974609375 94.4501953125 388.690185546875 94.4501953125Q486.620361328125 94.4501953125 536.7923583984375 149.0701904296875Q586.96435546875 203.690185546875 595.7919921875 292.27490234375H414.896728515625V383.10400390625H716.966552734375V0H606.447265625L596.96435546875 96.378173828125Q574.033447265625 61.58544921875 543.8094482421875 37.2236328125Q513.58544921875 12.86181640625 473.1029052734375 0.430908203125Q432.620361328125 -12 378.241455078125 -12Z"/><path fill="#173530" transform="translate(264.656 136) scale(0.012000 -0.012000)" d="M74.930908203125 0V700H527.38037109375V602.8603515625H194.93310546875V401.8974609375H497.38037109375V307.4130859375H194.93310546875V97.1396484375H527.38037109375V0Z"/><path fill="#173530" transform="translate(275.226 136) scale(0.012000 -0.012000)" d="M74.930908203125 0V700H194.93310546875V93.898193359375H507.69091796875V0Z"/></svg>
